<svg width="24" height="23" viewBox="0 0 24 23" fill="none" xmlns="http://www.w3.org/2000/svg">
<path d="M13.7574 1.66869L13.7574 1.66871L15.8622 6.71543L15.9797 6.9971L16.2839 7.02137L21.7463 7.45715C21.7463 7.45716 21.7464 7.45716 21.7465 7.45717C23.435 7.59262 24.1153 9.69102 22.8318 10.7876L22.8318 10.7877L18.6701 14.3442L18.4374 14.5431L18.5087 14.8407L19.7807 20.1547C19.7807 20.1548 19.7807 20.1549 19.7807 20.155C20.1721 21.7941 18.3838 23.0959 16.9366 22.2142L12.2602 19.3646L12.0001 19.2061L11.7399 19.3646L7.0634 22.213L7.06335 22.213C5.61592 23.0948 3.82798 21.7926 4.21929 20.1549C4.2193 20.1549 4.21931 20.1548 4.21932 20.1548L5.49132 14.8382L5.56254 14.5406L5.32982 14.3417L1.16815 10.7864C1.16814 10.7864 1.16813 10.7864 1.16813 10.7864C-0.115679 9.68945 0.565468 7.59027 2.25344 7.45596L2.25366 7.45595L7.71618 7.01894L8.02027 6.99462L8.13774 6.71308L10.2426 1.66879L10.2426 1.66869C10.8924 0.110437 13.1076 0.110437 13.7574 1.66869Z" fill="white" stroke="black"/>
</svg>
